<?xml version="1.0" encoding="utf-8"?>
<!-- Generator: Adobe Illustrator 26.0.3, SVG Export Plug-In . SVG Version: 6.00 Build 0)  -->
<svg version="1.0" id="katman_1" xmlns="http://www.w3.org/2000/svg" xmlns:xlink="http://www.w3.org/1999/xlink" x="0px" y="0px"
	 viewBox="0 0 600 450" style="enable-background:new 0 0 600 450;" xml:space="preserve">
<style type="text/css">
	.st0{fill:#E8405A;}
</style>
<path class="st0" d="M470.9,151.5c-36.8,0-62.5,46.2-62.5,83c0,4.6,0.4,9.1,1.3,13.3c0.2,1-0.2,2.1-1,2.7c-3.9,2.7-8.1,5.4-12.5,8
	c-1.9,1.1-4.2-0.4-3.9-2.6c0.1-1.1,0.3-2.2,0.6-3.6l17.9-95c0.2-1.1-0.3-2.2-1.2-2.7c-2.4-1.3-5.4-2.2-8.5-2.2
	c-4.6,0-9.5,1.6-13.1,5.2c-1,1-2.5,1.1-3.6,0.2c-5.1-4.2-11.4-6.3-20-6.3c-29.8,0-56.9,43.2-57,83.3c0,2.9,0.2,6.2,0.8,9.7
	c0.2,1-0.2,2-1,2.5c-5.9,4.2-13.4,7.5-20,7.5c-6.3,0-10.2-4.4-7.3-18.1l13.5-64.6c0.3-1.2,1.3-2.1,2.5-2.1h18.7
	c6.7,0,10.6-5.1,10.5-11.7c0-1.4-1.2-2.5-2.6-2.5h-22.3c-1.7,0-2.9-1.5-2.5-3.1l6.2-29.2c0.2-1.2-0.3-2.3-1.3-2.9
	c-2.7-1.4-6.1-2.2-9.7-2.2c-8.8,0-18.1,4.1-20.5,15.4l-4.4,19.9c-0.3,1.2-1.3,2-2.5,2h-2.6c-6.7,0-10.6,5.1-10.5,11.7
	c0,1.4,1.2,2.5,2.6,2.5h6.4c1.7,0,2.9,1.5,2.5,3.1l-12.6,59.6c-0.1,0.4-0.3,0.8-0.6,1.2c-10.8,12.6-28.4,22.8-43.9,22.8
	c-10.1,0-17.4-4.4-19.7-16.2c-0.2-1.1,0.3-2.2,1.3-2.8c44.5-25.6,54.2-41.6,55.1-62.6c0.4-11-4.4-23.4-25.5-23.4
	c-38.3,0-59.2,50.8-60.4,82.5c-0.2,3.9,0,7.5,0.4,10.9c0.1,1-0.3,2.1-1.2,2.6c-6.9,4.1-14.7,6.6-21.1,6.6c-8.5,0-15.2-4.9-13.5-17.6
	c0.2-2.7,0.7-5.7,1.1-8.5c0.1-0.4,0.2-0.7,0.4-1c31.3-47.9,56.4-93.3,56.4-112.3c0-12.7-8.9-21.3-20.4-21.3
	c-32,0-56.8,59.9-68,148.3c-3.2,25.6,10.1,36.1,27.2,36.1c13.5,0,29.4-6,41.8-15.5c1.2-0.9,2.9-0.6,3.7,0.6
	c6.8,10.1,18,14.9,30.9,14.9c16.4,0,33.6-7.5,48.3-21.1c1.6-1.5,4.2-0.5,4.4,1.7c1,14.1,9.3,19.4,20.5,19.4c13.8,0,29.1-8,40.4-18.2
	c1.3-1.2,3.4-0.7,4.1,0.9c4.5,9.6,12.1,17.4,24,17.4c8.6,0,16.8-5.1,24.1-13.2c1.8-2,5.1-0.3,4.5,2.3c-0.4,1.9-0.9,3.8-1.3,5.7
	c-0.2,0.7-0.6,1.3-1.3,1.7c-18.6,9.9-53.9,26.8-53.9,54.8c0,15,12.4,28.3,28.3,28.3c35.5,0,41.5-36.2,51.1-81
	c0.2-0.7,0.6-1.4,1.3-1.7c8-4.3,15.6-9.3,21.5-13.6c1.2-0.9,3-0.5,3.7,0.8c5.7,9.7,15.2,16.1,29.3,16.1c38.3,0,64.4-46.2,64.4-82.5
	C508.7,171.3,497.5,151.5,470.9,151.5z M161.4,109.5c2.7,0,4.8,2.8,4.8,6.9c0,7.2-14,39.6-31.9,74.2c-1.4,2.7-5.5,1.2-4.9-1.7
	C138.8,144.8,154.3,109.5,161.4,109.5z M218.6,170.6c4.7,0,6.7,4.8,6.5,9.5c-0.6,15.2-13.6,30.7-34,44.8c-1.9,1.3-4.4-0.2-4.1-2.5
	C189.5,203.4,197.9,170.6,218.6,170.6z M334.7,335.6c-5,0-11.3-3.8-11.3-11.5c0-12.8,13.1-22,31.9-32c2-1.1,4.3,0.8,3.7,3
	C351.9,322,346.4,335.6,334.7,335.6z M370.1,236.7c-0.1,0.4-0.2,0.7-0.4,1c-5.8,8.8-14.6,14.9-21.4,14.9c-6.6,0-14.3-6.9-14.3-19.1
	c0-22.8,12.1-63.6,38.1-63.6c2.6,0,5.1,0.3,7.9,1.2c1.3,0.4,2,1.7,1.8,3L370.1,236.7z M455.5,256.6c-8.5,0-15.9-8.3-15.9-29.8
	c0-23.9,14.4-56.7,36.6-56.7c10,0,14.1,10,14.1,23.2C490.4,218.9,474.8,256.6,455.5,256.6z"/>
</svg>
